<svg width="124" height="22" viewBox="0 0 124 22" fill="none" xmlns="http://www.w3.org/2000/svg">
<path d="M-0.0079999 17V0.199999H3.88V17H-0.0079999ZM15.691 3.896C16.715 3.896 17.627 4.104 18.427 4.52C19.243 4.92 19.883 5.544 20.347 6.392C20.811 7.224 21.043 8.296 21.043 9.608V17H17.299V10.184C17.299 9.144 17.067 8.376 16.603 7.88C16.155 7.384 15.515 7.136 14.683 7.136C14.091 7.136 13.555 7.264 13.075 7.52C12.611 7.76 12.243 8.136 11.971 8.648C11.715 9.16 11.587 9.816 11.587 10.616V17H7.843V4.088H11.419V7.664L10.747 6.584C11.211 5.72 11.875 5.056 12.739 4.592C13.603 4.128 14.587 3.896 15.691 3.896ZM29.9807 17L22.7327 0.199999H26.9327L33.2687 15.08H30.7968L37.2288 0.199999H41.0928L33.8207 17H29.9807ZM47.9185 17.192C46.4465 17.192 45.1505 16.904 44.0305 16.328C42.9265 15.752 42.0705 14.968 41.4625 13.976C40.8545 12.968 40.5505 11.824 40.5505 10.544C40.5505 9.248 40.8465 8.104 41.4385 7.112C42.0465 6.104 42.8705 5.32 43.9105 4.76C44.9505 4.184 46.1265 3.896 47.4385 3.896C48.7025 3.896 49.8385 4.168 50.8465 4.712C51.8705 5.24 52.6785 6.008 53.2705 7.016C53.8625 8.008 54.1585 9.2 54.1585 10.592C54.1585 10.736 54.1505 10.904 54.1345 11.096C54.1185 11.272 54.1025 11.44 54.0865 11.6H43.5985V9.416H52.1185L50.6785 10.064C50.6785 9.392 50.5425 8.808 50.2705 8.312C49.9985 7.816 49.6225 7.432 49.1425 7.16C48.6625 6.872 48.1025 6.728 47.4625 6.728C46.8225 6.728 46.2545 6.872 45.7585 7.16C45.2785 7.432 44.9025 7.824 44.6305 8.336C44.3585 8.832 44.2225 9.424 44.2225 10.112V10.688C44.2225 11.392 44.3745 12.016 44.6785 12.56C44.9985 13.088 45.4385 13.496 45.9985 13.784C46.5745 14.056 47.2465 14.192 48.0145 14.192C48.7025 14.192 49.3025 14.088 49.8145 13.88C50.3425 13.672 50.8225 13.36 51.2545 12.944L53.2465 15.104C52.6545 15.776 51.9105 16.296 51.0145 16.664C50.1185 17.016 49.0865 17.192 47.9185 17.192ZM64.7391 3.896C65.7631 3.896 66.6751 4.104 67.4751 4.52C68.2911 4.92 68.9311 5.544 69.3951 6.392C69.8591 7.224 70.0911 8.296 70.0911 9.608V17H66.3471V10.184C66.3471 9.144 66.1151 8.376 65.6511 7.88C65.2031 7.384 64.5631 7.136 63.7311 7.136C63.1391 7.136 62.6031 7.264 62.1231 7.52C61.6591 7.76 61.2911 8.136 61.0191 8.648C60.7631 9.16 60.6351 9.816 60.6351 10.616V17H56.8911V4.088H60.4671V7.664L59.7951 6.584C60.2591 5.72 60.9231 5.056 61.7871 4.592C62.6511 4.128 63.6351 3.896 64.7391 3.896ZM79.0049 17.192C77.4849 17.192 76.3009 16.808 75.4529 16.04C74.6049 15.256 74.1809 14.096 74.1809 12.56V1.232H77.9249V12.512C77.9249 13.056 78.0689 13.48 78.3569 13.784C78.6449 14.072 79.0369 14.216 79.5329 14.216C80.1249 14.216 80.6289 14.056 81.0449 13.736L82.0529 16.376C81.6689 16.648 81.2049 16.856 80.6609 17C80.1329 17.128 79.5809 17.192 79.0049 17.192ZM72.1889 7.256V4.376H81.1409V7.256H72.1889ZM90.1401 17.192C88.7641 17.192 87.5401 16.904 86.4681 16.328C85.4121 15.752 84.5721 14.968 83.9481 13.976C83.3401 12.968 83.0361 11.824 83.0361 10.544C83.0361 9.248 83.3401 8.104 83.9481 7.112C84.5721 6.104 85.4121 5.32 86.4681 4.76C87.5401 4.184 88.7641 3.896 90.1401 3.896C91.5001 3.896 92.7161 4.184 93.7881 4.76C94.8601 5.32 95.7001 6.096 96.3081 7.088C96.9161 8.08 97.2201 9.232 97.2201 10.544C97.2201 11.824 96.9161 12.968 96.3081 13.976C95.7001 14.968 94.8601 15.752 93.7881 16.328C92.7161 16.904 91.5001 17.192 90.1401 17.192ZM90.1401 14.12C90.7641 14.12 91.3241 13.976 91.8201 13.688C92.3161 13.4 92.7081 12.992 92.9961 12.464C93.2841 11.92 93.4281 11.28 93.4281 10.544C93.4281 9.792 93.2841 9.152 92.9961 8.624C92.7081 8.096 92.3161 7.688 91.8201 7.4C91.3241 7.112 90.7641 6.968 90.1401 6.968C89.5161 6.968 88.9561 7.112 88.4601 7.4C87.9641 7.688 87.5641 8.096 87.2601 8.624C86.9721 9.152 86.8281 9.792 86.8281 10.544C86.8281 11.28 86.9721 11.92 87.2601 12.464C87.5641 12.992 87.9641 13.4 88.4601 13.688C88.9561 13.976 89.5161 14.12 90.1401 14.12ZM99.9627 17V4.088H103.539V7.736L103.035 6.68C103.419 5.768 104.035 5.08 104.883 4.616C105.731 4.136 106.763 3.896 107.979 3.896V7.352C107.819 7.336 107.675 7.328 107.547 7.328C107.419 7.312 107.283 7.304 107.139 7.304C106.115 7.304 105.283 7.6 104.643 8.192C104.019 8.768 103.707 9.672 103.707 10.904V17H99.9627ZM112.522 21.848C111.85 21.848 111.186 21.744 110.53 21.536C109.874 21.328 109.338 21.04 108.922 20.672L110.29 18.008C110.578 18.264 110.906 18.464 111.274 18.608C111.658 18.752 112.034 18.824 112.402 18.824C112.93 18.824 113.346 18.696 113.65 18.44C113.97 18.2 114.258 17.792 114.514 17.216L115.186 15.632L115.474 15.224L120.106 4.088H123.706L117.874 17.792C117.458 18.832 116.978 19.648 116.434 20.24C115.906 20.832 115.314 21.248 114.658 21.488C114.018 21.728 113.306 21.848 112.522 21.848ZM114.73 17.504L108.97 4.088H112.834L117.298 14.888L114.73 17.504Z" fill="#0080F6"/>
</svg>
