<svg width="20" height="20" viewBox="0 0 20 20" fill="none" xmlns="http://www.w3.org/2000/svg">
<mask id="mask0_18_7749" style="mask-type:alpha" maskUnits="userSpaceOnUse" x="0" y="0" width="20" height="20">
<rect width="20" height="20" fill="#D9D9D9"/>
</mask>
<g mask="url(#mask0_18_7749)">
<path d="M0.833496 17.5V13.3333H2.50016V15.8333H5.00016V17.5H0.833496ZM15.0002 17.5V15.8333H17.5002V13.3333H19.1668V17.5H15.0002ZM3.3335 15V5H5.00016V15H3.3335ZM5.8335 15V5H6.66683V15H5.8335ZM8.3335 15V5H10.0002V15H8.3335ZM10.8335 15V5H13.3335V15H10.8335ZM14.1668 15V5H15.0002V15H14.1668ZM15.8335 15V5H16.6668V15H15.8335ZM0.833496 6.66667V2.5H5.00016V4.16667H2.50016V6.66667H0.833496ZM17.5002 6.66667V4.16667H15.0002V2.5H19.1668V6.66667H17.5002Z" fill="#757575"/>
</g>
</svg>
